<svg width="760" height="760" viewBox="0 0 760 760" fill="none" xmlns="http://www.w3.org/2000/svg">
  <circle cx="380" cy="380" r="278" stroke="#7FC4FF" stroke-opacity=".12"/>
  <circle cx="380" cy="380" r="210" stroke="#7FC4FF" stroke-opacity=".18" stroke-dasharray="3 9"/>
  <circle cx="380" cy="380" r="140" stroke="#7FC4FF" stroke-opacity=".18"/>
  <path d="M380 170V590M170 380H590" stroke="#7FC4FF" stroke-opacity=".08"/>
  <path d="M221 528C298 459 328 421 380 380C438 335 477 293 545 230" stroke="#7FC4FF" stroke-width="3"/>
  <path d="M221 528L297 470L351 438L410 346L471 326L545 230" stroke="#7FC4FF" stroke-opacity=".45" stroke-width="12" stroke-linecap="round" stroke-linejoin="round"/>
  <g fill="#071019" stroke="#7FC4FF" stroke-width="2">
    <circle cx="221" cy="528" r="10"/><circle cx="297" cy="470" r="10"/><circle cx="351" cy="438" r="10"/><circle cx="410" cy="346" r="10"/><circle cx="471" cy="326" r="10"/><circle cx="545" cy="230" r="10"/>
  </g>
  <g font-family="monospace" font-size="13" fill="#7FC4FF" fill-opacity=".65">
    <text x="203" y="555">01</text><text x="280" y="497">02</text><text x="334" y="465">03</text><text x="393" y="373">04</text><text x="454" y="353">05</text><text x="528" y="257">06</text>
  </g>
</svg>
