<svg width="1440" height="480" viewBox="0 0 1440 480" fill="none" xmlns="http://www.w3.org/2000/svg">
  <g stroke="#7FC4FF" stroke-opacity=".16">
    <path d="M-40 402C110 318 196 350 322 291C450 231 535 321 657 259C814 179 886 264 1018 208C1162 147 1267 173 1490 71"/>
    <path d="M-40 430C125 347 211 379 338 321C466 262 552 350 678 289C831 215 910 298 1042 243C1180 185 1289 207 1490 108"/>
    <path d="M-40 458C137 377 229 407 354 352C486 294 571 381 698 321C849 250 932 332 1065 278C1200 223 1314 242 1490 146"/>
    <path d="M-40 374C97 289 181 321 307 261C437 199 515 291 638 229C797 149 864 231 994 174C1142 109 1248 139 1490 35"/>
  </g>
</svg>
