<svg xmlns="http://www.w3.org/2000/svg" viewBox="0 0 1200 620">
  <g fill="none" stroke="#7895b8" stroke-width="2" opacity=".78">
    <path d="M82 186 132 138 214 122 272 144 314 132 355 161 342 205 302 230 276 276 234 281 205 327 175 315 151 270 106 249Z"/>
    <path d="M287 310 333 333 347 377 324 416 336 463 307 526 274 491 260 438 235 397 248 354Z"/>
    <path d="M478 154 529 118 596 127 622 111 698 127 749 117 806 141 842 132 907 155 958 153 1026 186 1084 211 1094 246 1057 265 1012 253 968 281 918 276 889 305 827 301 791 329 742 318 713 286 672 276 643 247 596 244 551 223 501 225 465 198Z"/>
    <path d="M557 255 613 267 647 312 642 367 617 421 595 489 563 524 539 468 515 435 503 380 519 336Z"/>
    <path d="M884 374 929 352 983 370 1002 405 975 438 924 445 891 420Z"/>
    <path d="M392 98 429 79 458 89 449 116 414 123Z"/>
  </g>
  <g fill="none" stroke="#34485f" stroke-width="1" opacity=".7">
    <path d="M0 103h1200M0 207h1200M0 310h1200M0 413h1200M0 516h1200"/>
    <path d="M200 0v620M400 0v620M600 0v620M800 0v620M1000 0v620"/>
  </g>
</svg>